<?xml version="1.0" encoding="UTF-8"?>
<svg width="106px" height="40px" viewBox="0 0 106 40" version="1.1" xmlns="http://www.w3.org/2000/svg" xmlns:xlink="http://www.w3.org/1999/xlink">
    <!-- Generator: Sketch 61.2 (89653) - https://sketch.com -->
    <title>go</title>
    <desc>Created with Sketch.</desc>
    <g id="Landing" stroke="none" stroke-width="1" fill="none" fill-rule="evenodd">
        <g id="Desktop-HD" transform="translate(-573.000000, -1919.000000)" fill="#5DC9E1" fill-rule="nonzero">
            <g id="Code-Group" transform="translate(291.000000, 1327.000000)">
                <g id="Icons" transform="translate(282.000000, 582.000000)">
                    <g id="go" transform="translate(0.000000, 10.000000)">
                        <path d="M8.30769231,12.3589744 C8.1025641,12.3589744 8.05128205,12.2564103 8.15384615,12.1025641 L9.23076923,10.7179487 C9.33333333,10.5641026 9.58974359,10.4615385 9.79487179,10.4615385 L28.1025641,10.4615385 C28.3076923,10.4615385 28.3589744,10.6153846 28.2564103,10.7692308 L27.3846154,12.1025641 C27.2820513,12.2564103 27.025641,12.4102564 26.8717949,12.4102564 L8.30769231,12.3589744 Z" id="Path"></path>
                        <path d="M0.564102564,17.0769231 C0.358974359,17.0769231 0.307692308,16.974359 0.41025641,16.8205128 L1.48717949,15.4358974 C1.58974359,15.2820513 1.84615385,15.1794872 2.05128205,15.1794872 L25.4358974,15.1794872 C25.6410256,15.1794872 25.7435897,15.3333333 25.6923077,15.4871795 L25.2820513,16.7179487 C25.2307692,16.9230769 25.025641,17.025641 24.8205128,17.025641 L0.564102564,17.0769231 Z" id="Path"></path>
                        <path d="M12.974359,21.7948718 C12.7692308,21.7948718 12.7179487,21.6410256 12.8205128,21.4871795 L13.5384615,20.2051282 C13.6410256,20.0512821 13.8461538,19.8974359 14.0512821,19.8974359 L24.3076923,19.8974359 C24.5128205,19.8974359 24.6153846,20.0512821 24.6153846,20.2564103 L24.5128205,21.4871795 C24.5128205,21.6923077 24.3076923,21.8461538 24.1538462,21.8461538 L12.974359,21.7948718 Z" id="Path"></path>
                        <g id="CXHf1q_7_" transform="translate(28.205128, 0.000000)">
                            <g id="Group">
                                <path d="M38,11.4358974 C34.7692308,12.2564103 32.5641026,12.8717949 29.3846154,13.6923077 C28.6153846,13.8974359 28.5641026,13.9487179 27.8974359,13.1794872 C27.1282051,12.3076923 26.5641026,11.7435897 25.4871795,11.2307692 C22.2564103,9.64102564 19.1282051,10.1025641 16.2051282,12 C12.7179487,14.2564103 10.9230769,17.5897436 10.974359,21.7435897 C11.025641,25.8461538 13.8461538,29.2307692 17.8974359,29.7948718 C21.3846154,30.2564103 24.3076923,29.025641 26.6153846,26.4102564 C27.0769231,25.8461538 27.4871795,25.2307692 28,24.5128205 C26.1538462,24.5128205 23.8461538,24.5128205 18.1025641,24.5128205 C17.025641,24.5128205 16.7692308,23.8461538 17.1282051,22.974359 C17.7948718,21.3846154 19.025641,18.7179487 19.7435897,17.3846154 C19.8974359,17.0769231 20.2564103,16.5641026 21.025641,16.5641026 C23.6410256,16.5641026 33.2820513,16.5641026 39.6923077,16.5641026 C39.5897436,17.9487179 39.5897436,19.3333333 39.3846154,20.7179487 C38.8205128,24.4102564 37.4358974,27.7948718 35.1794872,30.7692308 C31.4871795,35.6410256 26.6666667,38.6666667 20.5641026,39.4871795 C15.5384615,40.1538462 10.8717949,39.1794872 6.76923077,36.1025641 C2.97435897,33.2307692 0.820512821,29.4358974 0.256410256,24.7179487 C-0.41025641,19.1282051 1.23076923,14.1025641 4.61538462,9.69230769 C8.25641026,4.92307692 13.0769231,1.8974359 18.974359,0.820512821 C23.7948718,-0.0512820513 28.4102564,0.512820513 32.5641026,3.33333333 C35.2820513,5.12820513 37.2307692,7.58974359 38.5128205,10.5641026 C38.8205128,11.025641 38.6153846,11.2820513 38,11.4358974 Z" id="Path"></path>
                                <path d="M54.974359,39.7948718 C50.3076923,39.6923077 46.0512821,38.3589744 42.4615385,35.2820513 C39.4358974,32.6666667 37.5384615,29.3333333 36.9230769,25.3846154 C36,19.5897436 37.5897436,14.4615385 41.0769231,9.8974359 C44.8205128,4.97435897 49.3333333,2.41025641 55.4358974,1.33333333 C60.6666667,0.41025641 65.5897436,0.923076923 70.0512821,3.94871795 C74.1025641,6.71794872 76.6153846,10.4615385 77.2820513,15.3846154 C78.1538462,22.3076923 76.1538462,27.9487179 71.3846154,32.7692308 C68,36.2051282 63.8461538,38.3589744 59.0769231,39.3333333 C57.6923077,39.5897436 56.3076923,39.6410256 54.974359,39.7948718 Z M67.1794872,19.0769231 C67.1282051,18.4102564 67.1282051,17.8974359 67.025641,17.3846154 C66.1025641,12.3076923 61.4358974,9.43589744 56.5641026,10.5641026 C51.7948718,11.6410256 48.7179487,14.6666667 47.5897436,19.4871795 C46.6666667,23.4871795 48.6153846,27.5384615 52.3076923,29.1794872 C55.1282051,30.4102564 57.9487179,30.2564103 60.6666667,28.8717949 C64.7179487,26.7692308 66.9230769,23.4871795 67.1794872,19.0769231 Z" id="Shape"></path>
                            </g>
                        </g>
                    </g>
                </g>
            </g>
        </g>
    </g>
</svg>