<?xml version="1.0" encoding="UTF-8"?>
<svg width="36px" height="36px" viewBox="0 0 36 36" version="1.1" xmlns="http://www.w3.org/2000/svg" xmlns:xlink="http://www.w3.org/1999/xlink">
    <!-- Generator: Sketch 61.2 (89653) - https://sketch.com -->
    <title>javascript</title>
    <desc>Created with Sketch.</desc>
    <g id="Landing" stroke="none" stroke-width="1" fill="none" fill-rule="evenodd">
        <g id="Desktop-HD" transform="translate(-861.000000, -1919.000000)" fill-rule="nonzero">
            <g id="Code-Group" transform="translate(291.000000, 1327.000000)">
                <g id="Icons" transform="translate(282.000000, 582.000000)">
                    <g id="javascript" transform="translate(288.000000, 10.000000)">
                        <polygon id="Path" fill="#FFD600" points="0 36 0 0 36 0 36 36"></polygon>
                        <path d="M23.538,26.947 C24.23,28.071 24.982,29.148 26.575,29.148 C27.913,29.148 28.615,28.483 28.615,27.563 C28.615,26.462 27.889,26.071 26.417,25.43 L25.61,25.086 C23.281,24.098 21.732,22.86 21.732,20.245 C21.732,17.835 23.577,16.001 26.46,16.001 C28.513,16.001 29.988,16.712 31.052,18.574 L28.538,20.181 C27.985,19.193 27.387,18.804 26.46,18.804 C25.514,18.804 24.915,19.401 24.915,20.181 C24.915,21.145 25.515,21.535 26.9,22.132 L27.707,22.476 C30.452,23.645 32,24.839 32,27.523 C32,30.415 29.716,32 26.65,32 C23.651,32 21.948,30.495 21,28.632 L23.538,26.947 Z M11.952,27.029 C12.458,27.935 13.227,28.632 14.333,28.632 C15.391,28.632 16,28.214 16,26.589 L16,16 L19.333,16 L19.333,27.101 C19.333,30.468 17.38,32 14.528,32 C11.951,32 10.091,30.254 9.333,28.632 L11.952,27.029 Z" id="Shape" fill="#000001"></path>
                    </g>
                </g>
            </g>
        </g>
    </g>
</svg>