<svg xmlns="http://www.w3.org/2000/svg" xmlns:xlink="http://www.w3.org/1999/xlink" width="39" height="50" version="1.1" viewBox="0 0 39 50"><title>java</title><desc>Created with Sketch.</desc><g id="Landing" fill="none" fill-rule="evenodd" stroke="none" stroke-width="1"><g id="Desktop-HD" fill-rule="nonzero" transform="translate(-756.000000, -1909.000000)"><g id="Code-Group" transform="translate(291.000000, 1327.000000)"><g id="Icons" transform="translate(282.000000, 582.000000)"><g id="java" transform="translate(183.846154, 0.000000)"><path id="Path" fill="#F44336" d="M18.3125,26.1225 C17.065,24.11125 16.16,22.44375 14.90625,19.30375 C12.78625,14 27.8,9.2075 21.7125,-0.00125 C24.35125,6.36 12.24125,10.2925 11.11625,15.59 C10.0875,20.4625 18.30625,26.1225 18.3125,26.1225 Z"/><path id="Path" fill="#F44336" d="M18.5975,16.5875 C18.3575,19.7325 21.38375,21.40875 21.47125,23.70625 C21.54125,25.57625 19.6625,27.135 19.6625,27.135 C19.6625,27.135 23.0725,26.465 24.13625,23.6125 C25.3175,20.445 21.84375,18.27625 22.20125,15.74 C22.535,13.3175 29.74,8.81125 29.74,8.81125 C29.74,8.81125 19.13875,9.51375 18.5975,16.5875 Z"/><g id="Group" fill="#1565C0" transform="translate(0.000000, 25.000000)"><path id="Shape" d="M28.855,1.31875 C31.0475,0.82625 32.89625,2.2225 32.89625,3.83125 C32.89625,7.4575 27.87,10.885 27.87,10.885 C27.87,10.885 35.65125,9.9575 35.65125,4.00375 C35.65125,0.06625 31.83,-0.9175 28.855,1.31875 Z M25.16125,4.24375 C25.16125,4.24375 27.5875,2.515 28.23375,1.86625 C22.28,3.13 8.68625,3.3 8.68625,2.2025 C8.68625,1.19125 13.07,0.155 13.07,0.155 C13.07,0.155 3.35375,0.015 3.35375,2.88125 C3.35375,5.86875 16.0725,6.0825 25.16125,4.24375 Z"/><path id="Path" d="M23.66875,6.96375 C18.0325,8.8375 7.65125,8.23875 10.72625,5.7225 C9.22875,5.7225 7.00875,6.92625 7.00875,8.08375 C7.00875,10.405 18.23625,12.1975 26.54625,8.79875 L23.66875,6.96375 Z"/><path id="Path" d="M12.1075,10.92375 C10.0625,10.92375 8.73875,12.24125 8.73875,13.20125 C8.73875,16.19 20.93875,16.49125 25.7725,13.4575 L22.7,11.4175 C19.08875,13.005 10.0175,13.22375 12.1075,10.92375 Z"/><path id="Path" d="M34.10125,15.79 C34.10125,14.62 32.7825,14.06875 32.31,13.805 C35.095,20.52125 4.41375,20 4.41375,16.035 C4.41375,15.13375 6.6725,14.25125 8.76,14.66875 L6.985,13.62 C2.825,12.9675 0,14.79625 0,16.27125 C0,23.15 34.10125,22.81875 34.10125,15.79 Z"/><path id="Path" d="M37.5,18.255 C32.3175,23.37375 19.17625,25.23875 5.96125,22.07625 C19.17625,27.705 37.4375,24.535 37.5,18.255 Z"/></g></g></g></g></g></g></svg>