<svg xmlns="http://www.w3.org/2000/svg" xmlns:xlink="http://www.w3.org/1999/xlink" width="102" height="102" version="1.1" viewBox="0 0 102 102"><title>flipt</title><g fill="none" fill-rule="evenodd" stroke="none" stroke-width="1"><rect width="102" height="102" x="0" y="0" fill="#A27EDE"/><g fill="#FFF" fill-rule="nonzero" transform="translate(11.000000, 6.000000)"><path id="Combined-Shape" d="M76.853747,0.944298305 L80.5014035,12.3764723 C73.377328,14.6495465 69.0970845,15.5959116 64.1154413,15.4893635 C60.4422076,15.4107998 57.2811383,15.2216458 51.363371,14.7817725 C32.6428677,13.3902595 27.7508694,14.2067971 26.5804419,18.7427306 C25.0466595,24.6868277 23.2327017,32.7034445 21.1418104,42.7815407 L60.1088489,33.7704995 L61.0100711,37.6676521 L20.2562844,47.0916827 C19.0056445,53.2360599 17.6629656,60.0661755 16.2288703,67.5799091 C15.3705025,72.0772017 14.0071927,79.3852547 12.1401209,89.4979696 L0.339557454,87.3192767 C2.21068673,77.1845853 3.57765648,69.8569132 4.4416468,65.3301617 C8.75008728,42.7567154 12.2510917,26.2467508 14.9610297,15.7445209 C16.9093113,8.19405278 22.47107,4.02915 30.6007464,2.67220226 C35.8572196,1.79482915 40.1540831,1.91547047 52.2528885,2.81478627 C57.9681178,3.23960474 60.9728783,3.41940546 64.3720403,3.49210723 C67.6380166,3.56196039 70.9328998,2.83345925 76.853747,0.944298305 Z"/></g></g></svg>