<?xml version="1.0" encoding="UTF-8"?>
<svg width="269px" height="126px" viewBox="0 0 269 126" version="1.1" xmlns="http://www.w3.org/2000/svg" xmlns:xlink="http://www.w3.org/1999/xlink">
    <title>flipt</title>
    <g id="logo-full" stroke="none" stroke-width="1" fill="none" fill-rule="evenodd">
        <g id="logo-white" transform="translate(0.000000, -1.000000)" fill="#FFFFFF" fill-rule="nonzero">
            <path d="M102.25058,1.26955661 L107.103629,16.6394794 C97.6253555,19.6955015 91.930677,20.9678366 85.3028165,20.8245886 C80.4157382,20.7189642 76.2100725,20.4646571 68.3367395,19.8732719 C43.4299211,18.00246 36.9213293,19.1002494 35.3641262,25.19856 C33.3235084,33.1900165 30.9101343,43.9678243 28.1283169,57.5171408 L79.9722189,45.4025605 L81.171256,50.6420657 L26.9503009,63.3111971 C25.2863241,71.5722178 23.4998838,80.755247 21.5918087,90.8574333 C20.4497876,96.9037934 18.635963,106.729065 16.1519048,120.325048 L0.45176648,117.395916 C2.94122291,103.770387 4.75991692,93.9187388 5.90941861,87.832773 C11.641612,57.4840285 16.2995466,35.2872982 19.9050018,21.1676337 C22.497106,11.0164487 29.896785,5.41696833 40.7129671,3.59262749 C47.706477,2.41304808 53.4232677,2.57524363 69.5202041,3.78432377 C77.124069,4.3554686 81.1217727,4.59720068 85.6442104,4.69494416 C89.9894503,4.78885786 94.3731497,3.80942855 102.25058,1.26955661 Z" id="Combined-Shape"></path>
        </g>
        <text id="Flipt" font-family="FiraSans-Regular, Fira Sans" font-size="80" font-weight="normal" fill="#FFFFFF">
            <tspan x="108.06" y="108">Flipt</tspan>
        </text>
    </g>
</svg>
