<svg xmlns="http://www.w3.org/2000/svg" xmlns:xlink="http://www.w3.org/1999/xlink" width="269" height="109" version="1.1" viewBox="0 0 269 109"><title>flipt</title><g id="logo" fill="none" fill-rule="evenodd" stroke="none" stroke-width="1"><g id="logo-white" fill="#FFF" fill-rule="nonzero" transform="translate(0.000000, -1.000000)"><path id="Combined-Shape" d="M88.9672164,1.10462862 L93.1898061,14.4778461 C84.9428541,17.1368606 79.9879708,18.2439068 74.2211351,18.1192682 C69.9689367,18.0273654 66.3096287,17.8060953 59.4591197,17.2915369 C37.7879439,15.663762 32.1248826,16.6189377 30.7699756,21.9250173 C28.9944783,28.8782108 26.894658,38.2557157 24.4742674,50.0446182 L69.5830349,39.5043178 L70.6263052,44.0631593 L23.4489658,55.0875561 C22.0012197,62.2751007 20.4469304,70.2647928 18.7868187,79.0541521 C17.7931575,84.31503 16.2149667,92.8639012 14.0536123,104.693632 L0.393077536,102.145023 C2.5591289,90.289585 4.14155653,81.7177637 5.14172655,76.4224251 C10.1292512,50.0162833 14.1820739,30.7031284 17.3191447,18.4177482 C19.5745089,9.58530285 26.0128963,4.71325045 35.4239491,3.12590957 C41.5089328,2.09956921 46.4830557,2.24069395 60.4888405,3.2927026 C67.1048879,3.78965005 70.5832503,3.99997874 74.5181785,4.08502438 C78.2989287,4.16673776 82.1131421,3.31454602 88.9672164,1.10462862 Z"/></g><text id="Flipt" fill="#FFF" font-family="FiraSans-Regular, Fira Sans" font-size="80" font-weight="normal"><tspan x="108.06" y="91">Flipt</tspan></text></g></svg>