<svg xmlns="http://www.w3.org/2000/svg" xmlns:xlink="http://www.w3.org/1999/xlink" width="39" height="38" version="1.1" viewBox="0 0 39 38"><title>python</title><desc>Created with Sketch.</desc><g id="Landing" fill="none" fill-rule="evenodd" stroke="none" stroke-width="1"><g id="Desktop-HD" fill-rule="nonzero" transform="translate(-808.000000, -1919.000000)"><g id="Code-Group" transform="translate(291.000000, 1327.000000)"><g id="Icons" transform="translate(282.000000, 582.000000)"><g id="python" transform="translate(235.000000, 10.000000)"><path id="Shape" fill="#0277BD" d="M20.047,-7.31669411e-05 C18.492,0.005 17.414,0.142 16.111,0.367 C12.263,1.037 11.562,2.444 11.562,5.037 L11.562,9 L20.562,9 L20.562,11 L11.22,11 L6.87,11 C4.234,11 1.927,12.242 1.196,15.219 C0.37,18.636 0.333,20.776 1.196,24.344 C1.851,27.005 3.294,29 5.931,29 L9.563,29 L9.563,23.896 C9.563,20.93 12.249,18 15.327,18 L22.563,18 C25.086,18 27.563,16.138 27.563,13.623 L27.563,5.037 C27.563,2.598 25.804,0.774 23.345,0.365 C23.406,0.359 21.589,-0.006 20.047,-7.31669411e-05 Z M15.063,4 C15.884,4 16.563,4.677 16.563,5.502 C16.563,6.335 15.884,7 15.063,7 C14.226,7 13.563,6.336 13.563,5.502 C13.563,4.68 14.226,4 15.063,4 Z"/><path id="Shape" fill="#FFC107" d="M19.078,38.0000732 C20.633,37.995 21.711,37.858 23.014,37.633 C26.862,36.963 27.563,35.556 27.563,32.963 L27.563,29 L18.563,29 L18.563,27 L27.906,27 L32.256,27 C34.892,27 37.199,25.758 37.93,22.781 C38.756,19.364 38.793,17.224 37.93,13.656 C37.274,10.995 35.831,9 33.194,9 L29.562,9 L29.562,14.104 C29.562,17.07 26.876,20 23.798,20 L16.562,20 C14.039,20 11.562,21.862 11.562,24.377 L11.562,32.963 C11.562,35.402 13.321,37.226 15.78,37.635 C15.719,37.641 17.536,38.006 19.078,38.0000732 Z M24.063,34 C23.242,34 22.563,33.323 22.563,32.498 C22.563,31.665 23.242,31 24.063,31 C24.9,31 25.563,31.664 25.563,32.498 C25.563,33.32 24.899,34 24.063,34 Z"/></g></g></g></g></g></svg>