<?xml version="1.0" encoding="UTF-8"?>
<svg width="36px" height="36px" viewBox="0 0 36 36" version="1.1" xmlns="http://www.w3.org/2000/svg" xmlns:xlink="http://www.w3.org/1999/xlink">
    <!-- Generator: Sketch 61.2 (89653) - https://sketch.com -->
    <title>ruby</title>
    <desc>Created with Sketch.</desc>
    <g id="Landing" stroke="none" stroke-width="1" fill="none" fill-rule="evenodd">
        <g id="Desktop-HD" transform="translate(-700.000000, -1921.000000)" fill-rule="nonzero">
            <g id="Code-Group" transform="translate(291.000000, 1327.000000)">
                <g id="Icons" transform="translate(282.000000, 582.000000)">
                    <g id="ruby" transform="translate(120.000000, 5.000000)">
                        <polygon id="Path" fill="#9B1010" points="43 15 41 41 15 43"></polygon>
                        <polygon id="Path" fill="#B71C1C" points="29 29 41 41 43 15"></polygon>
                        <path d="M25,13.336 C16.918295,13.336 9.4504915,15.5591457 5.40963894,19.1679999 C1.36878638,22.7768541 1.36878638,27.2231459 5.40963894,30.8320001 C9.4504915,34.4408543 16.918295,36.664 25,36.664 C33.081705,36.664 40.5495085,34.4408543 44.5903611,30.8320001 C48.6312136,27.2231459 48.6312136,22.7768541 44.5903611,19.1679999 C40.5495085,15.5591457 33.081705,13.336 25,13.336 Z" id="Path" fill="#C62828" transform="translate(25.000000, 25.000000) rotate(-45.001000) translate(-25.000000, -25.000000) "></path>
                        <polygon id="Path" fill="#E53935" points="11 18 18 11 26 7 32 11 29 20 20 28 11 31 7 25"></polygon>
                        <path d="M32,11 L26,7 L37,7 L32,11 Z M43,16 L32,11 L29,20 L43,16 Z M20,28 L33.235,33.235 L29,20 L20,28 Z M11,31 L15,43 L20,28 L11,31 Z M7,25 L7,36 L11,31 L7,25 Z" id="Shape" fill="#FF5252"></path>
                    </g>
                </g>
            </g>
        </g>
    </g>
</svg>